<svg width="25" height="25" viewBox="0 0 25 25" fill="none" xmlns="http://www.w3.org/2000/svg">
<path d="M0 2.34375C0 2.13655 0.0823101 1.93784 0.228823 1.79132C0.375336 1.64481 0.57405 1.5625 0.78125 1.5625H3.125C3.29927 1.56255 3.46852 1.62086 3.60583 1.72816C3.74314 1.83547 3.84064 1.9856 3.88281 2.15469L4.51563 4.6875H22.6563C22.7718 4.68757 22.8859 4.71327 22.9903 4.76274C23.0947 4.81221 23.1868 4.88422 23.2601 4.97359C23.3333 5.06296 23.3858 5.16746 23.4138 5.27956C23.4418 5.39166 23.4445 5.50858 23.4219 5.62188L21.8594 13.4344C21.8252 13.6047 21.7352 13.7588 21.6036 13.8723C21.472 13.9858 21.3064 14.0522 21.1328 14.0609L6.45 14.7984L6.89844 17.1875H20.3125C20.5197 17.1875 20.7184 17.2698 20.8649 17.4163C21.0114 17.5628 21.0938 17.7615 21.0938 17.9688C21.0938 18.176 21.0114 18.3747 20.8649 18.5212C20.7184 18.6677 20.5197 18.75 20.3125 18.75H6.25C6.06786 18.7498 5.89151 18.686 5.75142 18.5696C5.61134 18.4532 5.51633 18.2915 5.48281 18.1125L3.14063 5.63594L2.51563 3.125H0.78125C0.57405 3.125 0.375336 3.04269 0.228823 2.89618C0.0823101 2.74966 0 2.55095 0 2.34375ZM4.84688 6.25L6.15938 13.2484L20.4469 12.5313L21.7031 6.25H4.84688ZM7.8125 18.75C6.9837 18.75 6.18884 19.0792 5.60279 19.6653C5.01674 20.2513 4.6875 21.0462 4.6875 21.875C4.6875 22.7038 5.01674 23.4987 5.60279 24.0847C6.18884 24.6708 6.9837 25 7.8125 25C8.6413 25 9.43616 24.6708 10.0222 24.0847C10.6083 23.4987 10.9375 22.7038 10.9375 21.875C10.9375 21.0462 10.6083 20.2513 10.0222 19.6653C9.43616 19.0792 8.6413 18.75 7.8125 18.75ZM18.75 18.75C17.9212 18.75 17.1263 19.0792 16.5403 19.6653C15.9542 20.2513 15.625 21.0462 15.625 21.875C15.625 22.7038 15.9542 23.4987 16.5403 24.0847C17.1263 24.6708 17.9212 25 18.75 25C19.5788 25 20.3737 24.6708 20.9597 24.0847C21.5458 23.4987 21.875 22.7038 21.875 21.875C21.875 21.0462 21.5458 20.2513 20.9597 19.6653C20.3737 19.0792 19.5788 18.75 18.75 18.75ZM7.8125 20.3125C8.2269 20.3125 8.62433 20.4771 8.91735 20.7701C9.21038 21.0632 9.375 21.4606 9.375 21.875C9.375 22.2894 9.21038 22.6868 8.91735 22.9799C8.62433 23.2729 8.2269 23.4375 7.8125 23.4375C7.3981 23.4375 7.00067 23.2729 6.70765 22.9799C6.41462 22.6868 6.25 22.2894 6.25 21.875C6.25 21.4606 6.41462 21.0632 6.70765 20.7701C7.00067 20.4771 7.3981 20.3125 7.8125 20.3125ZM18.75 20.3125C19.1644 20.3125 19.5618 20.4771 19.8549 20.7701C20.1479 21.0632 20.3125 21.4606 20.3125 21.875C20.3125 22.2894 20.1479 22.6868 19.8549 22.9799C19.5618 23.2729 19.1644 23.4375 18.75 23.4375C18.3356 23.4375 17.9382 23.2729 17.6451 22.9799C17.3521 22.6868 17.1875 22.2894 17.1875 21.875C17.1875 21.4606 17.3521 21.0632 17.6451 20.7701C17.9382 20.4771 18.3356 20.3125 18.75 20.3125Z" fill="black" fill-opacity="0.58"/>
</svg>
