<svg width="30" height="23" viewBox="0 0 30 23" fill="none" xmlns="http://www.w3.org/2000/svg">
<path fill-rule="evenodd" clip-rule="evenodd" d="M26.8407 2.33212C25.1089 3.61479 23.6309 4.70661 23.5561 4.75842C23.0475 5.11105 22.4927 5.38224 22.0569 5.49129C21.6802 5.58551 21.5026 5.59867 20.347 5.61794C19.7399 5.62808 19.2165 5.64067 19.1838 5.64593C19.1511 5.65122 19.0365 5.66586 18.9291 5.67848C18.4436 5.73559 17.9831 5.89235 17.5823 6.13693C17.2831 6.31952 17.0592 6.48854 16.3906 7.03613C14.1839 8.84369 12.2073 10.7888 10.5301 12.803C10.151 13.2583 10.043 13.3639 9.95652 13.3639C9.93061 13.3639 9.92772 13.3523 9.93723 13.287C9.97311 13.0409 10.0715 12.8134 10.2291 12.6127C10.3133 12.5054 10.7681 12.0171 11.076 11.7036C11.1693 11.6085 11.3069 11.4649 11.3816 11.3845C11.6457 11.1003 13.2551 9.43521 13.8172 8.86456C14.5543 8.11635 14.7869 7.87063 15.0153 7.59913L15.2021 7.37709L15.0832 7.30082C15.0178 7.25887 14.8115 7.11297 14.6247 6.97658C14.0858 6.58303 12.8659 5.81056 12.1032 5.37982C11.9305 5.28224 11.5866 5.08416 11.3391 4.93964C10.6199 4.51958 10.394 4.41078 10.0558 4.32137C9.91536 4.28427 9.83511 4.27706 9.57323 4.27802C9.2088 4.27937 8.96086 4.31147 8.3422 4.43738C7.50986 4.60675 7.27552 4.63678 6.47445 4.6767C6.02282 4.69921 5.96554 4.69827 5.83023 4.66619C5.60477 4.61271 5.55521 4.58205 4.47079 3.82558C4.22798 3.65619 3.8956 3.42591 3.73216 3.31385C3.56873 3.20178 3.02241 2.82376 2.51811 2.47379C2.0138 2.12381 1.42545 1.7156 1.21066 1.56663C0.995861 1.41766 0.697865 1.21046 0.548442 1.10617C0.399019 1.00188 0.215637 0.880746 0.140926 0.836944L0.00508667 0.757335L0.000722848 2.0736C-0.00168829 2.79754 0.00213218 3.39683 0.00921278 3.40533C0.0394709 3.44173 3.26062 5.8888 3.81706 6.2981C4.28912 6.64534 4.48797 6.80814 4.69794 7.0193C5.00373 7.32681 5.27745 7.74031 5.42828 8.12262C5.46481 8.2152 5.55235 8.49476 5.62284 8.74386C5.6933 8.99295 5.78257 9.29272 5.82121 9.41C6.00166 9.95782 6.34839 10.6521 6.7312 11.2322C6.96403 11.5851 7.49808 12.232 7.77626 12.4981C8.02479 12.7359 8.35946 13.006 9.31854 13.7426C10.1031 14.3451 10.8431 14.9358 10.9877 15.075L11.0862 15.1699L11.003 15.2866C10.3111 16.2577 8.12665 19.3341 8.04197 19.4567C7.8581 19.7227 7.76641 19.9786 7.74489 20.2857L7.73444 20.4353H7.78429C7.92415 20.4353 8.15754 20.3243 8.33 20.1757C8.46 20.0637 9.28998 19.112 10.1682 18.0679C11.1543 16.8956 11.959 15.9589 12.0062 15.9283C12.0467 15.9022 12.0605 15.9071 12.1996 15.9979C12.3724 16.1106 12.6431 16.3148 12.7355 16.402C12.7987 16.4617 12.7989 16.4622 12.7721 16.5246C12.7573 16.5591 12.6722 16.6805 12.583 16.7943C12.4937 16.9081 12.2851 17.1813 12.1194 17.4013C11.9537 17.6214 11.7707 17.8568 11.7128 17.9244C11.6548 17.9921 11.5328 18.1489 11.4417 18.2729C11.2552 18.5265 10.6269 19.341 10.1436 19.9553C9.31781 21.005 8.82816 21.7275 8.77265 21.978C8.75309 22.0663 8.75424 22.0794 8.78615 22.1311C8.84145 22.2209 8.91922 22.2156 9.13797 22.1071C9.23944 22.0568 9.3645 21.9852 9.41586 21.948C9.65385 21.7755 10.5693 20.8384 11.2542 20.0661C11.3803 19.9239 11.8579 19.4028 12.3155 18.908C12.7731 18.4132 13.2454 17.8951 13.365 17.7568C13.629 17.4515 13.761 17.3591 13.9344 17.358C14.0167 17.3576 14.0603 17.3697 14.1288 17.4122C14.2427 17.4828 14.6225 17.7884 14.7063 17.8768L14.7708 17.9449L14.6364 18.1294C14.5625 18.2308 14.2851 18.5642 14.02 18.8702C13.7549 19.1762 12.9591 20.1216 12.2516 20.9711C10.8378 22.6685 10.889 22.5981 10.8681 22.8756L10.859 22.9974L10.959 22.9993C11.1461 23.0028 11.2117 22.9942 11.2825 22.9567C11.3342 22.9293 14.4044 20.1516 15.5926 19.0573C15.7353 18.9259 15.8457 18.8702 15.964 18.8701C16.0212 18.87 16.0986 18.8806 16.1359 18.8937C16.2548 18.9352 16.8708 19.3717 19.0687 20.9714C19.7972 21.5018 20.1582 21.7532 20.2115 21.7677C20.2568 21.7799 20.3567 21.783 20.4504 21.7751L20.6114 21.7614L20.601 21.6671C20.5835 21.5099 20.546 21.3717 20.5009 21.2979C20.3842 21.1072 18.2355 19.2121 15.5841 16.9614C15.2806 16.7038 14.7725 16.2669 14.4549 15.9906C14.1374 15.7144 13.4574 15.1274 12.9437 14.6863C12.4301 14.2452 11.9481 13.8289 11.8726 13.7612C11.7971 13.6934 11.6808 13.5971 11.6143 13.547C11.5478 13.497 11.493 13.4453 11.4927 13.4321C11.4914 13.3886 11.5785 13.2826 11.7942 13.0651C11.9112 12.9472 12.0561 12.8215 12.1162 12.7858C12.2226 12.7226 12.2284 12.7215 12.3361 12.7437C12.532 12.7842 12.7718 12.9462 13.2239 13.3435C13.322 13.4296 13.6543 13.7035 13.9625 13.9521C14.2707 14.2006 14.924 14.7435 15.4143 15.1583C15.9046 15.5731 16.577 16.1337 16.9085 16.4039C17.7145 17.0609 17.9007 17.2141 18.8487 18.0002C19.2948 18.3701 19.9519 18.9085 20.309 19.1967C20.6661 19.4849 21.2014 19.9182 21.4987 20.1596C21.866 20.458 22.0669 20.6086 22.1258 20.6297C22.1764 20.6478 22.2789 20.6607 22.3726 20.6607H22.5328L22.5208 20.5452C22.5037 20.3803 22.4704 20.2594 22.4201 20.1797C22.3765 20.1108 21.2959 19.0803 18.8273 16.7537C15.527 13.6433 13.4299 11.6414 13.4153 11.5875C13.4048 11.5488 14.2146 10.7813 14.2659 10.7813C14.3083 10.7813 14.4892 10.9294 14.7494 11.1772C15.6211 12.007 17.6945 13.9112 20.7714 16.7077C21.6213 17.4801 22.3968 18.1879 22.4949 18.2804C22.861 18.6261 23.2076 18.8695 23.4041 18.9187C23.4945 18.9413 23.4972 18.9406 23.5384 18.8841C23.5901 18.8132 23.5901 18.8124 23.5412 18.669C23.4537 18.4121 23.3616 18.2915 22.8854 17.8103C22.75 17.6735 22.4253 17.33 22.1638 17.0471C21.2946 16.1065 18.3856 13.113 17.5714 12.3211C15.8614 10.658 15.1936 9.98137 15.1936 9.91176C15.1936 9.88204 15.551 9.5306 15.7507 9.36396C15.8637 9.26962 15.8796 9.26201 15.9153 9.28507C16.0478 9.37067 16.4698 9.79347 17.2204 10.5925C17.6117 11.0091 19.7805 13.2475 20.4916 13.9688C20.7523 14.2332 20.7345 14.2261 20.8811 14.1228C21.1406 13.9399 21.5413 13.5335 21.8017 13.1892C21.9848 12.9472 22.0518 12.8454 22.193 12.5953C22.5507 11.9616 22.8159 11.2775 23.1306 10.1766C23.5249 8.79739 23.5668 8.6639 23.7427 8.22945C23.9581 7.69731 24.1742 7.35875 24.4708 7.08852C24.7759 6.81056 25.4185 6.31886 26.5021 5.53425C26.787 5.32801 27.3753 4.88977 27.8096 4.56034C28.8824 3.74654 29.4515 3.32019 29.7495 3.10692L30 2.92772V1.46386C30 0.658745 29.9976 0 29.9947 0C29.9917 0 28.5724 1.04945 26.8407 2.33212Z" fill="#B31340"/>
</svg>
