<svg width="25" height="25" viewBox="0 0 25 25" fill="none" xmlns="http://www.w3.org/2000/svg">
<g clip-path="url(#clip0_350_745)">
<path d="M4.64062 2.10938C4.78732 1.93787 4.96943 1.80017 5.17443 1.70577C5.37942 1.61136 5.60244 1.56249 5.82812 1.5625H19.1719C19.3976 1.56249 19.6206 1.61136 19.8256 1.70577C20.0306 1.80017 20.2127 1.93787 20.3594 2.10938L24.4359 6.86562C24.7999 7.29036 25 7.83127 25 8.39062V8.78906C25.0001 9.56246 24.7585 10.3166 24.3091 10.946C23.8597 11.5754 23.2248 12.0486 22.4932 12.2996C21.7617 12.5506 20.97 12.5667 20.2288 12.3457C19.4877 12.1248 18.8341 11.6778 18.3594 11.0672C18.0127 11.5137 17.5685 11.875 17.0607 12.1233C16.5529 12.3717 15.995 12.5005 15.4297 12.5C14.8644 12.5006 14.3064 12.3718 13.7986 12.1235C13.2908 11.8751 12.8466 11.5138 12.5 11.0672C12.1534 11.5138 11.7092 11.8751 11.2014 12.1235C10.6936 12.3718 10.1356 12.5006 9.57031 12.5C9.00501 12.5006 8.44707 12.3718 7.93924 12.1235C7.43142 11.8751 6.9872 11.5138 6.64062 11.0672C6.16592 11.6778 5.51232 12.1248 4.77115 12.3457C4.02999 12.5667 3.23831 12.5506 2.50676 12.2996C1.77521 12.0486 1.14035 11.5754 0.69091 10.946C0.241472 10.3166 -8.53103e-05 9.56246 2.26008e-08 8.78906V8.39062C1.96993e-05 7.83127 0.200088 7.29036 0.564062 6.86562L4.64219 2.10781L4.64062 2.10938ZM7.42188 8.78906C7.42188 9.35886 7.64823 9.90533 8.05114 10.3082C8.45405 10.7111 9.00051 10.9375 9.57031 10.9375C10.1401 10.9375 10.6866 10.7111 11.0895 10.3082C11.4924 9.90533 11.7188 9.35886 11.7188 8.78906C11.7188 8.58186 11.8011 8.38315 11.9476 8.23664C12.0941 8.09012 12.2928 8.00781 12.5 8.00781C12.7072 8.00781 12.9059 8.09012 13.0524 8.23664C13.1989 8.38315 13.2812 8.58186 13.2812 8.78906C13.2812 9.35886 13.5076 9.90533 13.9105 10.3082C14.3134 10.7111 14.8599 10.9375 15.4297 10.9375C15.9995 10.9375 16.546 10.7111 16.9489 10.3082C17.3518 9.90533 17.5781 9.35886 17.5781 8.78906C17.5781 8.58186 17.6604 8.38315 17.8069 8.23664C17.9535 8.09012 18.1522 8.00781 18.3594 8.00781C18.5666 8.00781 18.7653 8.09012 18.9118 8.23664C19.0583 8.38315 19.1406 8.58186 19.1406 8.78906C19.1406 9.35886 19.367 9.90533 19.7699 10.3082C20.1728 10.7111 20.7193 10.9375 21.2891 10.9375C21.8589 10.9375 22.4053 10.7111 22.8082 10.3082C23.2111 9.90533 23.4375 9.35886 23.4375 8.78906V8.39062C23.4375 8.20442 23.371 8.02433 23.25 7.88281L19.1719 3.125H5.82812L1.75 7.88281C1.62898 8.02433 1.56249 8.20442 1.5625 8.39062V8.78906C1.5625 9.35886 1.78885 9.90533 2.19176 10.3082C2.59467 10.7111 3.14114 10.9375 3.71094 10.9375C4.28074 10.9375 4.8272 10.7111 5.23011 10.3082C5.63302 9.90533 5.85938 9.35886 5.85938 8.78906C5.85938 8.58186 5.94169 8.38315 6.0882 8.23664C6.23471 8.09012 6.43342 8.00781 6.64062 8.00781C6.84783 8.00781 7.04654 8.09012 7.19305 8.23664C7.33956 8.38315 7.42188 8.58186 7.42188 8.78906ZM2.34375 13.2812C2.55095 13.2812 2.74966 13.3636 2.89618 13.5101C3.04269 13.6566 3.125 13.8553 3.125 14.0625V23.4375H21.875V14.0625C21.875 13.8553 21.9573 13.6566 22.1038 13.5101C22.2503 13.3636 22.449 13.2812 22.6562 13.2812C22.8635 13.2812 23.0622 13.3636 23.2087 13.5101C23.3552 13.6566 23.4375 13.8553 23.4375 14.0625V23.4375H24.2188C24.426 23.4375 24.6247 23.5198 24.7712 23.6663C24.9177 23.8128 25 24.0115 25 24.2188C25 24.426 24.9177 24.6247 24.7712 24.7712C24.6247 24.9177 24.426 25 24.2188 25H0.78125C0.57405 25 0.375336 24.9177 0.228823 24.7712C0.0823101 24.6247 2.26008e-08 24.426 2.26008e-08 24.2188C2.26008e-08 24.0115 0.0823101 23.8128 0.228823 23.6663C0.375336 23.5198 0.57405 23.4375 0.78125 23.4375H1.5625V14.0625C1.5625 13.8553 1.64481 13.6566 1.79132 13.5101C1.93784 13.3636 2.13655 13.2812 2.34375 13.2812ZM5.46875 14.0625C5.67595 14.0625 5.87466 14.1448 6.02118 14.2913C6.16769 14.4378 6.25 14.6365 6.25 14.8438V20.3125H18.75V14.8438C18.75 14.6365 18.8323 14.4378 18.9788 14.2913C19.1253 14.1448 19.324 14.0625 19.5312 14.0625C19.7385 14.0625 19.9372 14.1448 20.0837 14.2913C20.2302 14.4378 20.3125 14.6365 20.3125 14.8438V20.3125C20.3125 20.7269 20.1479 21.1243 19.8549 21.4174C19.5618 21.7104 19.1644 21.875 18.75 21.875H6.25C5.8356 21.875 5.43817 21.7104 5.14515 21.4174C4.85212 21.1243 4.6875 20.7269 4.6875 20.3125V14.8438C4.6875 14.6365 4.76981 14.4378 4.91632 14.2913C5.06284 14.1448 5.26155 14.0625 5.46875 14.0625Z" fill="black" fill-opacity="0.58"/>
</g>
<defs>
<clipPath id="clip0_350_745">
<rect width="25" height="25" fill="white"/>
</clipPath>
</defs>
</svg>
