<svg width="31" height="31" viewBox="0 0 31 31" fill="none" xmlns="http://www.w3.org/2000/svg">
<path d="M25.1875 4.84375H5.8125C5.55557 4.84375 5.30917 4.94581 5.12749 5.12749C4.94581 5.30917 4.84375 5.55557 4.84375 5.8125V25.1875C4.84375 25.7222 5.27775 26.1562 5.8125 26.1562H25.1875C25.4444 26.1562 25.6908 26.0542 25.8725 25.8725C26.0542 25.6908 26.1562 25.4444 26.1562 25.1875V5.8125C26.1562 5.55557 26.0542 5.30917 25.8725 5.12749C25.6908 4.94581 25.4444 4.84375 25.1875 4.84375Z" stroke="#B31340" stroke-width="2" stroke-linecap="round" stroke-linejoin="round"/>
<path d="M21.3125 2.42188V4.84375" stroke="#B31340" stroke-width="2" stroke-linecap="round" stroke-linejoin="round"/>
<path d="M9.6875 2.42188V4.84375" stroke="#B31340" stroke-width="2" stroke-linecap="round" stroke-linejoin="round"/>
<path d="M4.84375 10.6562H26.1562" stroke="#B31340" stroke-width="2" stroke-linecap="round" stroke-linejoin="round"/>
<path d="M19.8594 15.5L14.2045 20.8281L11.1406 17.9219" stroke="#B31340" stroke-width="2" stroke-linecap="round" stroke-linejoin="round"/>
</svg>
