<svg width="15" height="15" viewBox="0 0 15 15" fill="none" xmlns="http://www.w3.org/2000/svg">
<path d="M7.57422 5.3999C7.57422 5.30045 7.53471 5.20506 7.46438 5.13474C7.39406 5.06441 7.29868 5.0249 7.19922 5.0249C7.09976 5.0249 7.00438 5.06441 6.93405 5.13474C6.86373 5.20506 6.82422 5.30045 6.82422 5.3999V7.5749H4.57422C4.47476 7.5749 4.37938 7.61441 4.30905 7.68474C4.23873 7.75506 4.19922 7.85045 4.19922 7.9499C4.19922 8.04936 4.23873 8.14474 4.30905 8.21507C4.37938 8.28539 4.47476 8.3249 4.57422 8.3249H7.19922C7.29868 8.3249 7.39406 8.28539 7.46438 8.21507C7.53471 8.14474 7.57422 8.04936 7.57422 7.9499V5.3999Z" fill="#6E6B6B"/>
<path d="M6.07486 1.9502C6.07486 1.85074 6.11437 1.75536 6.1847 1.68503C6.25503 1.6147 6.35041 1.5752 6.44986 1.5752H7.94986C8.04932 1.5752 8.1447 1.6147 8.21503 1.68503C8.28536 1.75536 8.32486 1.85074 8.32486 1.9502C8.32486 2.04965 8.28536 2.14503 8.21503 2.21536C8.1447 2.28569 8.04932 2.3252 7.94986 2.3252V2.7527C8.94553 2.89573 9.87884 3.32278 10.638 3.9827C10.6409 3.97932 10.6438 3.97598 10.6467 3.9727L10.9124 3.70707L10.6467 3.4427C10.5763 3.37233 10.5367 3.27686 10.5366 3.17729C10.5366 3.07772 10.5761 2.98221 10.6464 2.91176C10.7168 2.84131 10.8123 2.8017 10.9118 2.80164C11.0114 2.80158 11.1069 2.84108 11.1774 2.91145L12.238 3.9727C12.2733 4.00743 12.3013 4.04881 12.3205 4.09444C12.3397 4.14007 12.3497 4.18905 12.3498 4.23855C12.35 4.28805 12.3404 4.3371 12.3215 4.38286C12.3026 4.42862 12.2749 4.47019 12.2398 4.50517C12.2048 4.54015 12.1632 4.56786 12.1174 4.58668C12.0716 4.6055 12.0226 4.61508 11.9731 4.61485C11.9236 4.61462 11.8746 4.60459 11.829 4.58534C11.7834 4.56609 11.7421 4.538 11.7074 4.5027L11.4424 4.2377L11.1774 4.5027C11.1741 4.50589 11.1708 4.50901 11.1674 4.51207C11.931 5.39359 12.3794 6.50428 12.4417 7.66889C12.5041 8.8335 12.1769 9.98572 11.5117 10.9437C10.8466 11.9017 9.88135 12.611 8.76838 12.9596C7.65542 13.3082 6.45806 13.2762 5.36526 12.8688C4.27245 12.4614 3.34642 11.7017 2.73328 10.7096C2.12014 9.71751 1.85481 8.54949 1.97915 7.38986C2.10348 6.23023 2.61042 5.14501 3.41995 4.30545C4.22948 3.46589 5.29553 2.91979 6.44986 2.75332V2.3252C6.35041 2.3252 6.25503 2.28569 6.1847 2.21536C6.11437 2.14503 6.07486 2.04965 6.07486 1.9502ZM7.19986 3.4502C6.60892 3.45024 6.02376 3.56667 5.47781 3.79286C4.93186 4.01904 4.43581 4.35054 4.01798 4.76844C3.60014 5.18633 3.26871 5.68243 3.0426 6.22841C2.81649 6.77439 2.70014 7.35956 2.70018 7.95051C2.70022 8.54146 2.81666 9.12661 3.04284 9.67256C3.26902 10.2185 3.60053 10.7146 4.01842 11.1324C4.43631 11.5502 4.93241 11.8817 5.47839 12.1078C6.02437 12.3339 6.60954 12.4502 7.20049 12.4502C8.39396 12.4502 9.53856 11.9761 10.3825 11.1322C11.2264 10.2883 11.7005 9.14367 11.7005 7.9502C11.7005 6.75672 11.2264 5.61213 10.3825 4.76822C9.53856 3.9243 8.39396 3.4502 7.20049 3.4502H7.19986Z" fill="#6E6B6B"/>
</svg>
