<svg width="29" height="29" viewBox="0 0 29 29" fill="none" xmlns="http://www.w3.org/2000/svg">
<path d="M23.8214 8.25593H23.7593C23.4957 5.98255 22.4069 3.8854 20.6997 2.36322C18.9925 0.841047 16.7861 0 14.5 0C12.2139 0 10.0075 0.841047 8.30029 2.36322C6.59313 3.8854 5.50425 5.98255 5.24071 8.25593H5.17857C3.80513 8.25593 2.48794 8.80213 1.51677 9.77436C0.545598 10.7466 0 12.0652 0 13.4402C0 14.8151 0.545598 16.1338 1.51677 17.106C2.48794 18.0782 3.80513 18.6244 5.17857 18.6244H7.25V9.29278C7.25 7.36785 8.01384 5.52176 9.37348 4.16063C10.7331 2.7995 12.5772 2.03482 14.5 2.03482C16.4228 2.03482 18.2669 2.7995 19.6265 4.16063C20.9862 5.52176 21.75 7.36785 21.75 9.29278V19.6613C21.7493 20.6113 21.4229 21.5322 20.8252 22.2702C20.2276 23.0081 19.3951 23.5183 18.4668 23.7154C18.1903 22.7446 17.5697 21.9082 16.7212 21.3628C15.8728 20.8173 14.8548 20.6004 13.858 20.7526C12.8612 20.9048 11.9541 21.4158 11.3067 22.1896C10.6592 22.9635 10.3159 23.9471 10.3411 24.9562C10.3663 25.9653 10.7583 26.9306 11.4435 27.6711C12.1288 28.4116 13.0603 28.8765 14.0634 28.9787C15.0665 29.0809 16.0725 28.8133 16.8926 28.2261C17.7128 27.6389 18.2909 26.7724 18.5186 25.7891C19.9882 25.5709 21.3312 24.8329 22.3041 23.7087C23.2769 22.5846 23.8152 21.1486 23.8214 19.6613V18.6244C25.1949 18.6244 26.5121 18.0782 27.4832 17.106C28.4544 16.1338 29 14.8151 29 13.4402C29 12.0652 28.4544 10.7466 27.4832 9.77436C26.5121 8.80213 25.1949 8.25593 23.8214 8.25593ZM2.07143 13.4402C2.07143 12.6152 2.39879 11.824 2.98149 11.2407C3.56419 10.6573 4.35451 10.3296 5.17857 10.3296V16.5507C4.35451 16.5507 3.56419 16.223 2.98149 15.6397C2.39879 15.0563 2.07143 14.2652 2.07143 13.4402ZM14.5 26.9192C14.0903 26.9192 13.6898 26.7976 13.3492 26.5698C13.0085 26.3419 12.743 26.018 12.5862 25.6391C12.4295 25.2602 12.3884 24.8432 12.4684 24.441C12.5483 24.0387 12.7456 23.6692 13.0353 23.3792C13.325 23.0892 13.6941 22.8917 14.0959 22.8117C14.4977 22.7317 14.9142 22.7727 15.2927 22.9297C15.6712 23.0866 15.9947 23.3524 16.2223 23.6935C16.4499 24.0345 16.5714 24.4354 16.5714 24.8455C16.5714 25.3955 16.3532 25.923 15.9647 26.3119C15.5763 26.7008 15.0494 26.9192 14.5 26.9192ZM23.8214 16.5507V10.3296C24.6455 10.3296 25.4358 10.6573 26.0185 11.2407C26.6012 11.824 26.9286 12.6152 26.9286 13.4402C26.9286 14.2652 26.6012 15.0563 26.0185 15.6397C25.4358 16.223 24.6455 16.5507 23.8214 16.5507Z" fill="#B31340"/>
</svg>
