<svg width="34" height="34" viewBox="0 0 34 34" fill="none" xmlns="http://www.w3.org/2000/svg">
<path fill-rule="evenodd" clip-rule="evenodd" d="M21.5098 17.248C21.5892 17.3268 21.6522 17.4206 21.6953 17.524C21.7383 17.6273 21.7604 17.7381 21.7604 17.85C21.7604 17.962 21.7383 18.0728 21.6953 18.1761C21.6522 18.2794 21.5892 18.3732 21.5098 18.4521L16.4098 23.5521C16.331 23.6317 16.2373 23.6949 16.1339 23.738C16.0306 23.7811 15.9197 23.8033 15.8077 23.8033C15.6957 23.8033 15.5849 23.7811 15.4815 23.738C15.3782 23.6949 15.2844 23.6317 15.2056 23.5521L12.6556 21.0021C12.5766 20.923 12.5139 20.8292 12.4711 20.7259C12.4283 20.6226 12.4063 20.5118 12.4062 20.4C12.4062 20.2882 12.4283 20.1775 12.4711 20.0742C12.5139 19.9709 12.5766 19.877 12.6556 19.798C12.7347 19.7189 12.8286 19.6562 12.9319 19.6134C13.0352 19.5706 13.1459 19.5486 13.2577 19.5486C13.3695 19.5486 13.4803 19.5706 13.5836 19.6134C13.6869 19.6562 13.7807 19.7189 13.8598 19.798L15.8077 21.7487L20.3071 17.248C20.3861 17.1689 20.48 17.1062 20.5833 17.0634C20.6866 17.0206 20.7973 16.9985 20.9091 16.9985C21.021 16.9985 21.1317 17.0206 21.235 17.0634C21.3383 17.1062 21.4322 17.1689 21.5112 17.248H21.5098Z" fill="#B31340"/>
<path d="M16.6598 5.0999C17.7869 5.0999 18.8679 5.54767 19.665 6.3447C20.462 7.14173 20.9098 8.22273 20.9098 9.3499V10.1999H12.4098V9.3499C12.4098 8.22273 12.8575 7.14173 13.6546 6.3447C14.4516 5.54767 15.5326 5.0999 16.6598 5.0999ZM22.6098 10.1999V9.3499C22.6098 8.56854 22.4559 7.79482 22.1568 7.07294C21.8578 6.35105 21.4196 5.69513 20.8671 5.14262C20.3145 4.59011 19.6586 4.15183 18.9367 3.85282C18.2148 3.5538 17.4411 3.3999 16.6598 3.3999C15.8784 3.3999 15.1047 3.5538 14.3828 3.85282C13.6609 4.15183 13.005 4.59011 12.4525 5.14262C11.9 5.69513 11.4617 6.35105 11.1627 7.07294C10.8637 7.79482 10.7098 8.56854 10.7098 9.3499V10.1999H4.75977V27.1999C4.75977 28.1016 5.11798 28.9664 5.7556 29.6041C6.39323 30.2417 7.25803 30.5999 8.15977 30.5999H25.1598C26.0615 30.5999 26.9263 30.2417 27.5639 29.6041C28.2016 28.9664 28.5598 28.1016 28.5598 27.1999V10.1999H22.6098ZM6.45977 11.8999H26.8598V27.1999C26.8598 27.6508 26.6807 28.0832 26.3618 28.402C26.043 28.7208 25.6106 28.8999 25.1598 28.8999H8.15977C7.7089 28.8999 7.2765 28.7208 6.95768 28.402C6.63887 28.0832 6.45977 27.6508 6.45977 27.1999V11.8999Z" fill="#B31340"/>
</svg>
