<svg width="35" height="35" viewBox="0 0 35 35" fill="none" xmlns="http://www.w3.org/2000/svg">
<circle cx="17.5" cy="17.5" r="17.5" fill="#B31340"/>
<g clip-path="url(#clip0_1229_21)">
<path fill-rule="evenodd" clip-rule="evenodd" d="M11.0033 9.54303C11.1892 9.3574 11.4125 9.2134 11.6582 9.12057C11.904 9.02774 12.1667 8.98821 12.4289 9.00458C12.6911 9.02096 12.9469 9.09287 13.1792 9.21556C13.4115 9.33824 13.6151 9.5089 13.7764 9.71622L15.6836 12.1663C16.0332 12.6158 16.1564 13.2012 16.0183 13.7537L15.4371 16.0806C15.4071 16.2011 15.4087 16.3274 15.4418 16.4471C15.475 16.5668 15.5385 16.6759 15.6262 16.7638L18.2368 19.3743C18.3248 19.4623 18.4341 19.5259 18.554 19.559C18.6739 19.5922 18.8004 19.5937 18.9211 19.5635L21.2469 18.9823C21.5195 18.9141 21.8041 18.9088 22.0791 18.9668C22.3541 19.0248 22.6123 19.1445 22.8342 19.317L25.2844 21.2231C26.1652 21.9084 26.2459 23.21 25.4576 23.9973L24.3589 25.0959C23.5727 25.8822 22.3976 26.2275 21.3021 25.8418C18.4984 24.8553 15.9527 23.2502 13.854 21.1455C11.7495 19.0471 10.1444 16.5018 9.15775 13.6985C8.77313 12.6041 9.11844 11.4279 9.90469 10.6417L11.0033 9.54303Z" fill="white"/>
</g>
<defs>
<clipPath id="clip0_1229_21">
<rect width="17" height="17" fill="white" transform="translate(9 9)"/>
</clipPath>
</defs>
</svg>
