<svg width="30" height="30" viewBox="0 0 30 30" fill="none" xmlns="http://www.w3.org/2000/svg">
<path d="M11.6537 5.08724L7.38081 9.30373L18.6469 9.37852C20.6107 9.39156 22.4889 10.1842 23.8683 11.582C25.2477 12.9799 26.0153 14.8684 26.0023 16.8322C25.9892 18.7961 25.1966 20.6743 23.7988 22.0537C22.4009 23.4331 20.5124 24.2007 18.5486 24.1877L3.73941 24.0894L3.7517 22.2382L18.5608 22.3365C20.0337 22.3463 21.4501 21.7706 22.4985 20.736C23.5469 19.7015 24.1414 18.2928 24.1511 16.82C24.1609 15.3471 23.5852 13.9307 22.5506 12.8823C21.5161 11.8339 20.1074 11.2394 18.6346 11.2297L7.36852 11.1549L11.585 15.4277L10.2676 16.7278L3.83157 10.2058L10.3536 3.7698L11.6537 5.08724Z" fill="#B31340"/>
</svg>
