<svg width="29" height="29" viewBox="0 0 29 29" fill="none" xmlns="http://www.w3.org/2000/svg">
<path d="M22.6562 11.7812C22.6562 9.61808 21.7969 7.5435 20.2673 6.01391C18.7377 4.48432 16.6632 3.625 14.5 3.625C12.3368 3.625 10.2623 4.48432 8.73266 6.01391C7.20307 7.5435 6.34375 9.61808 6.34375 11.7812C6.34375 15.1271 9.02081 19.488 14.5 24.7116C19.9792 19.488 22.6562 15.1271 22.6562 11.7812ZM14.5 27.1875C7.85356 21.1464 4.53125 16.0098 4.53125 11.7812C4.53125 9.13737 5.58153 6.60178 7.45103 4.73228C9.32053 2.86278 11.8561 1.8125 14.5 1.8125C17.1439 1.8125 19.6795 2.86278 21.549 4.73228C23.4185 6.60178 24.4688 9.13737 24.4688 11.7812C24.4688 16.0098 21.1464 21.1464 14.5 27.1875Z" fill="#B31340"/>
<path d="M14.5 14.5C15.2211 14.5 15.9126 14.2136 16.4224 13.7037C16.9323 13.1938 17.2188 12.5023 17.2188 11.7812C17.2188 11.0602 16.9323 10.3687 16.4224 9.8588C15.9126 9.34894 15.2211 9.0625 14.5 9.0625C13.7789 9.0625 13.0874 9.34894 12.5776 9.8588C12.0677 10.3687 11.7812 11.0602 11.7812 11.7812C11.7812 12.5023 12.0677 13.1938 12.5776 13.7037C13.0874 14.2136 13.7789 14.5 14.5 14.5ZM14.5 16.3125C13.2982 16.3125 12.1457 15.8351 11.2959 14.9853C10.4461 14.1356 9.96875 12.983 9.96875 11.7812C9.96875 10.5795 10.4461 9.42695 11.2959 8.57717C12.1457 7.7274 13.2982 7.25 14.5 7.25C15.7018 7.25 16.8543 7.7274 17.7041 8.57717C18.5539 9.42695 19.0312 10.5795 19.0312 11.7812C19.0312 12.983 18.5539 14.1356 17.7041 14.9853C16.8543 15.8351 15.7018 16.3125 14.5 16.3125Z" fill="#B31340"/>
</svg>
