<svg width="29" height="29" viewBox="0 0 29 29" fill="none" xmlns="http://www.w3.org/2000/svg">
<path d="M14.5 18.125C16.502 18.125 18.125 16.502 18.125 14.5C18.125 12.498 16.502 10.875 14.5 10.875C12.498 10.875 10.875 12.498 10.875 14.5C10.875 16.502 12.498 18.125 14.5 18.125Z" stroke="#B31340" stroke-width="2" stroke-linecap="round" stroke-linejoin="round"/>
<path d="M23.4423 18.1252C23.2815 18.4896 23.2335 18.8939 23.3046 19.2859C23.3756 19.6779 23.5625 20.0395 23.8411 20.3243L23.9136 20.3968C24.1383 20.6213 24.3165 20.8878 24.4381 21.1812C24.5597 21.4746 24.6223 21.789 24.6223 22.1066C24.6223 22.4242 24.5597 22.7387 24.4381 23.0321C24.3165 23.3254 24.1383 23.592 23.9136 23.8164C23.6891 24.0411 23.4226 24.2194 23.1292 24.341C22.8358 24.4626 22.5214 24.5252 22.2038 24.5252C21.8862 24.5252 21.5717 24.4626 21.2783 24.341C20.985 24.2194 20.7184 24.0411 20.494 23.8164L20.4215 23.7439C20.1367 23.4653 19.775 23.2785 19.383 23.2074C18.991 23.1363 18.5868 23.1843 18.2223 23.3452C17.8649 23.4983 17.5601 23.7527 17.3454 24.0768C17.1307 24.401 17.0155 24.7809 17.014 25.1697V25.3752C17.014 26.0161 16.7594 26.6308 16.3062 27.084C15.8529 27.5372 15.2383 27.7918 14.5973 27.7918C13.9564 27.7918 13.3417 27.5372 12.8885 27.084C12.4353 26.6308 12.1807 26.0161 12.1807 25.3752V25.2664C12.1713 24.8665 12.0418 24.4786 11.8091 24.1532C11.5764 23.8278 11.2511 23.5799 10.8757 23.4418C10.5112 23.281 10.1069 23.233 9.71494 23.3041C9.32296 23.3751 8.96126 23.562 8.67648 23.8406L8.60398 23.9131C8.37954 24.1378 8.11301 24.316 7.81963 24.4376C7.52625 24.5593 7.21178 24.6219 6.89419 24.6219C6.5766 24.6219 6.26213 24.5593 5.96875 24.4376C5.67537 24.316 5.40884 24.1378 5.1844 23.9131C4.95971 23.6886 4.78146 23.4221 4.65984 23.1287C4.53822 22.8353 4.47562 22.5209 4.47562 22.2033C4.47562 21.8857 4.53822 21.5712 4.65984 21.2778C4.78146 20.9845 4.95971 20.7179 5.1844 20.4935L5.2569 20.421C5.53547 20.1362 5.72233 19.7745 5.79341 19.3825C5.86448 18.9906 5.8165 18.5863 5.65565 18.2218C5.50248 17.8644 5.24815 17.5596 4.92396 17.3449C4.59978 17.1303 4.21989 17.015 3.83107 17.0135H3.62565C2.98471 17.0135 2.37002 16.7589 1.91681 16.3057C1.4636 15.8525 1.20898 15.2378 1.20898 14.5968C1.20898 13.9559 1.4636 13.3412 1.91681 12.888C2.37002 12.4348 2.98471 12.1802 3.62565 12.1802H3.7344C4.13435 12.1708 4.52224 12.0413 4.84764 11.8086C5.17303 11.5759 5.42089 11.2506 5.55898 10.8752C5.71983 10.5107 5.76781 10.1064 5.69674 9.71445C5.62567 9.32247 5.4388 8.96077 5.16023 8.676L5.08773 8.6035C4.86304 8.37905 4.68479 8.11252 4.56317 7.81914C4.44156 7.52576 4.37896 7.21129 4.37896 6.8937C4.37896 6.57612 4.44156 6.26164 4.56317 5.96826C4.68479 5.67489 4.86304 5.40836 5.08773 5.18391C5.31218 4.95922 5.57871 4.78097 5.87209 4.65935C6.16547 4.53773 6.47994 4.47514 6.79753 4.47514C7.11511 4.47514 7.42959 4.53773 7.72296 4.65935C8.01634 4.78097 8.28287 4.95922 8.50732 5.18391L8.57982 5.25641C8.8646 5.53498 9.22629 5.72184 9.61827 5.79292C10.0102 5.86399 10.4145 5.81601 10.779 5.65516H10.8757C11.233 5.50199 11.5378 5.24766 11.7525 4.92347C11.9672 4.59929 12.0824 4.2194 12.084 3.83058V3.62516C12.084 2.98422 12.3386 2.36953 12.7918 1.91632C13.245 1.46311 13.8597 1.2085 14.5007 1.2085C15.1416 1.2085 15.7563 1.46311 16.2095 1.91632C16.6627 2.36953 16.9173 2.98422 16.9173 3.62516V3.73391C16.9189 4.12274 17.0341 4.50262 17.2488 4.82681C17.4635 5.15099 17.7683 5.40532 18.1256 5.5585C18.4901 5.71934 18.8944 5.76732 19.2864 5.69625C19.6783 5.62518 20.04 5.43831 20.3248 5.15975L20.3973 5.08725C20.6218 4.86255 20.8883 4.6843 21.1817 4.56268C21.475 4.44107 21.7895 4.37847 22.1071 4.37847C22.4247 4.37847 22.7392 4.44107 23.0325 4.56268C23.3259 4.6843 23.5925 4.86255 23.8169 5.08725C24.0416 5.31169 24.2198 5.57822 24.3415 5.8716C24.4631 6.16498 24.5257 6.47945 24.5257 6.79704C24.5257 7.11462 24.4631 7.4291 24.3415 7.72248C24.2198 8.01586 24.0416 8.28239 23.8169 8.50683L23.7444 8.57933C23.4658 8.86411 23.279 9.22581 23.2079 9.61778C23.1368 10.0098 23.1848 10.414 23.3456 10.7785V10.8752C23.4988 11.2325 23.7532 11.5373 24.0773 11.752C24.4015 11.9667 24.7814 12.0819 25.1702 12.0835H25.3756C26.0166 12.0835 26.6313 12.3381 27.0845 12.7913C27.5377 13.2445 27.7923 13.8592 27.7923 14.5002C27.7923 15.1411 27.5377 15.7558 27.0845 16.209C26.6313 16.6622 26.0166 16.9168 25.3756 16.9168H25.2669C24.8781 16.9184 24.4982 17.0336 24.174 17.2483C23.8498 17.463 23.5955 17.7678 23.4423 18.1252V18.1252Z" stroke="#B31340" stroke-width="2" stroke-linecap="round" stroke-linejoin="round"/>
</svg>
