<svg width="29" height="30" viewBox="0 0 29 30" fill="none" xmlns="http://www.w3.org/2000/svg">
<path d="M23.2906 8.71875L16.9469 2.15625C16.7656 1.96875 16.5844 1.875 16.3125 1.875H7.25C6.25312 1.875 5.4375 2.71875 5.4375 3.75V26.25C5.4375 27.2813 6.25312 28.125 7.25 28.125H21.75C22.7469 28.125 23.5625 27.2813 23.5625 26.25V9.375C23.5625 9.09375 23.4719 8.90625 23.2906 8.71875ZM16.3125 4.125L21.3875 9.375H16.3125V4.125ZM21.75 26.25H7.25V3.75H14.5V9.375C14.5 10.4062 15.3156 11.25 16.3125 11.25H21.75V26.25Z" fill="#B31340"/>
<path d="M9.0625 20.625H19.9375V22.5H9.0625V20.625ZM9.0625 15H19.9375V16.875H9.0625V15Z" fill="#B31340"/>
</svg>
