<svg width="22" height="22" viewBox="0 0 22 22" fill="none" xmlns="http://www.w3.org/2000/svg">
<g clip-path="url(#clip0_352_1261)">
<path fill-rule="evenodd" clip-rule="evenodd" d="M2.59252 0.702461C2.83311 0.462233 3.12201 0.275878 3.44007 0.155747C3.75813 0.0356156 4.09808 -0.0155496 4.43741 0.00564223C4.77674 0.026834 5.10769 0.119899 5.40833 0.278669C5.70897 0.43744 5.97244 0.65829 6.18127 0.926586L8.6494 4.09733C9.10177 4.67896 9.26127 5.43658 9.08252 6.15158L8.3304 9.16283C8.29151 9.3188 8.29361 9.48217 8.33649 9.63708C8.37938 9.792 8.46159 9.93319 8.57515 10.047L11.9535 13.4253C12.0674 13.5391 12.2088 13.6215 12.364 13.6644C12.5192 13.7073 12.6829 13.7092 12.839 13.6701L15.8489 12.918C16.2017 12.8297 16.57 12.8229 16.9259 12.8979C17.2818 12.973 17.616 13.1279 17.9031 13.3511L21.0739 15.8178C22.2138 16.7047 22.3183 18.3891 21.298 19.408L19.8763 20.8297C18.8588 21.8472 17.338 22.2941 15.9204 21.795C12.292 20.5183 8.99765 18.4411 6.28165 15.7175C3.55817 13.0019 1.48098 9.70796 0.204147 6.08008C-0.293602 4.66384 0.153273 3.14171 1.17077 2.12421L2.59252 0.702461Z" fill="#B31340"/>
</g>
<defs>
<clipPath id="clip0_352_1261">
<rect width="22" height="22" fill="white"/>
</clipPath>
</defs>
</svg>
